<svg width="224" height="48" viewBox="0 0 224 48" fill="none" xmlns="http://www.w3.org/2000/svg">
<path d="M59.2988 11.0114V17.1477H42.7817V11.0114H59.2988ZM46.242 4.73863H54.5772V28.9602C54.5772 29.4716 54.6567 29.8864 54.8158 30.2046C54.9863 30.5114 55.2306 30.733 55.5488 30.8693C55.8669 30.9943 56.2476 31.0568 56.6908 31.0568C57.009 31.0568 57.3442 31.0284 57.6965 30.9716C58.0601 30.9034 58.3328 30.8466 58.5147 30.8012L59.776 36.8182C59.3783 36.9318 58.8158 37.0739 58.0885 37.2443C57.3726 37.4148 56.5147 37.5227 55.5147 37.5682C53.5601 37.6591 51.884 37.4318 50.4863 36.8864C49.0999 36.3296 48.0374 35.4659 47.2988 34.2955C46.5715 33.125 46.2192 31.6534 46.242 29.8807V4.73863ZM63.7016 37.1932V11.0114H71.7982V15.7841H72.0709C72.5482 14.0568 73.3266 12.7727 74.4061 11.9318C75.4857 11.0796 76.7414 10.6534 78.1732 10.6534C78.5596 10.6534 78.9573 10.6818 79.3664 10.7387C79.7755 10.7841 80.1561 10.858 80.5084 10.9602V18.2046C80.1107 18.0682 79.588 17.9602 78.9402 17.8807C78.3039 17.8012 77.7357 17.7614 77.2357 17.7614C76.2471 17.7614 75.355 17.983 74.5595 18.4262C73.7755 18.858 73.1561 19.4659 72.7016 20.25C72.2584 21.0227 72.0368 21.9318 72.0368 22.9773V37.1932H63.7016ZM84.0547 37.1932V11.0114H92.3899V37.1932H84.0547ZM88.2309 7.96023C87.0604 7.96023 86.0547 7.57386 85.2138 6.80113C84.3729 6.01704 83.9524 5.07386 83.9524 3.97159C83.9524 2.88068 84.3729 1.94886 85.2138 1.17613C86.0547 0.392044 87.0604 0 88.2309 0C89.4127 0 90.4184 0.392044 91.2479 1.17613C92.0888 1.94886 92.5093 2.88068 92.5093 3.97159C92.5093 5.07386 92.0888 6.01704 91.2479 6.80113C90.4184 7.57386 89.4127 7.96023 88.2309 7.96023ZM97.8453 47.0114V11.0114H106.095V15.4943H106.351C106.692 14.6989 107.175 13.9318 107.8 13.1932C108.436 12.4546 109.243 11.8523 110.22 11.3864C111.209 10.9091 112.391 10.6705 113.766 10.6705C115.584 10.6705 117.283 11.1477 118.862 12.1023C120.453 13.0568 121.737 14.5284 122.715 16.5171C123.692 18.5057 124.181 21.0398 124.181 24.1193C124.181 27.0852 123.709 29.5682 122.766 31.5682C121.834 33.5682 120.573 35.0682 118.982 36.0682C117.402 37.0682 115.647 37.5682 113.715 37.5682C112.397 37.5682 111.254 37.3523 110.289 36.9205C109.323 36.4887 108.51 35.9205 107.851 35.2159C107.203 34.5114 106.703 33.7557 106.351 32.9489H106.181V47.0114H97.8453ZM106.01 24.1023C106.01 25.5114 106.198 26.7387 106.573 27.7841C106.959 28.8296 107.51 29.6421 108.226 30.2216C108.953 30.7898 109.823 31.0739 110.834 31.0739C111.857 31.0739 112.726 30.7898 113.442 30.2216C114.158 29.6421 114.698 28.8296 115.061 27.7841C115.436 26.7387 115.624 25.5114 115.624 24.1023C115.624 22.6932 115.436 21.4716 115.061 20.4375C114.698 19.4034 114.158 18.6023 113.442 18.0341C112.737 17.4659 111.868 17.1818 110.834 17.1818C109.811 17.1818 108.942 17.4602 108.226 18.0171C107.51 18.5739 106.959 19.3693 106.573 20.4034C106.198 21.4375 106.01 22.6705 106.01 24.1023ZM143.477 11.0114V17.1477H126.96V11.0114H143.477ZM130.42 4.73863H138.755V28.9602C138.755 29.4716 138.835 29.8864 138.994 30.2046C139.164 30.5114 139.409 30.733 139.727 30.8693C140.045 30.9943 140.426 31.0568 140.869 31.0568C141.187 31.0568 141.522 31.0284 141.875 30.9716C142.238 30.9034 142.511 30.8466 142.692 30.8012L143.954 36.8182C143.556 36.9318 142.994 37.0739 142.266 37.2443C141.551 37.4148 140.693 37.5227 139.693 37.5682C137.738 37.6591 136.062 37.4318 134.664 36.8864C133.278 36.3296 132.216 35.4659 131.477 34.2955C130.75 33.125 130.397 31.6534 130.42 29.8807V4.73863ZM159.837 37.6875C157.098 37.6875 154.735 37.1477 152.746 36.0682C150.769 34.9773 149.246 33.4262 148.178 31.4148C147.121 29.3921 146.592 26.9887 146.592 24.2046C146.592 21.5 147.127 19.1364 148.195 17.1137C149.263 15.0796 150.769 13.5 152.712 12.375C154.655 11.2387 156.945 10.6705 159.581 10.6705C161.445 10.6705 163.149 10.9602 164.695 11.5398C166.24 12.1193 167.575 12.9773 168.7 14.1137C169.825 15.25 170.7 16.6534 171.325 18.3239C171.95 19.983 172.263 21.8864 172.263 24.0341V26.1137H149.507V21.2727H164.507C164.496 20.3864 164.286 19.5966 163.877 18.9034C163.467 18.2102 162.905 17.6705 162.189 17.2841C161.485 16.8864 160.672 16.6875 159.752 16.6875C158.82 16.6875 157.985 16.8977 157.246 17.3182C156.507 17.7273 155.922 18.2898 155.49 19.0057C155.058 19.7102 154.831 20.5114 154.808 21.4091V26.3352C154.808 27.4034 155.019 28.3409 155.439 29.1477C155.86 29.9432 156.456 30.5625 157.229 31.0057C158.002 31.4489 158.922 31.6705 159.99 31.6705C160.729 31.6705 161.399 31.5682 162.002 31.3637C162.604 31.1591 163.121 30.858 163.553 30.4602C163.985 30.0625 164.308 29.5739 164.524 28.9943L172.178 29.2159C171.86 30.9318 171.161 32.4262 170.081 33.6989C169.013 34.9602 167.61 35.9432 165.871 36.6477C164.132 37.3409 162.121 37.6875 159.837 37.6875ZM176.67 37.1932V11.0114H184.767V15.7841H185.039C185.517 14.0568 186.295 12.7727 187.375 11.9318C188.454 11.0796 189.71 10.6534 191.142 10.6534C191.528 10.6534 191.926 10.6818 192.335 10.7387C192.744 10.7841 193.125 10.858 193.477 10.9602V18.2046C193.079 18.0682 192.556 17.9602 191.909 17.8807C191.272 17.8012 190.704 17.7614 190.204 17.7614C189.215 17.7614 188.323 17.983 187.528 18.4262C186.744 18.858 186.125 19.4659 185.67 20.25C185.227 21.0227 185.005 21.9318 185.005 22.9773V37.1932H176.67ZM202.917 47.0114C201.917 47.0114 200.973 46.9318 200.087 46.7727C199.201 46.625 198.439 46.4262 197.803 46.1762L199.644 40.125C200.462 40.3977 201.201 40.5568 201.86 40.6023C202.53 40.6477 203.104 40.5398 203.581 40.2784C204.07 40.0284 204.445 39.5796 204.706 38.9318L205.03 38.1477L195.723 11.0114H204.451L209.275 29.6932H209.547L214.439 11.0114H223.218L213.348 39.6989C212.871 41.1307 212.195 42.3921 211.32 43.483C210.456 44.5852 209.337 45.4489 207.962 46.0739C206.598 46.6989 204.917 47.0114 202.917 47.0114Z" fill="#3D3A3F"/>
<mask id="path-2-inside-1_2275_1780" fill="white">
<path d="M19.7817 11.6364C17.3364 11.6364 14.9461 12.3615 12.9129 13.72C10.8797 15.0785 9.295 17.0095 8.35922 19.2686C7.42345 21.5278 7.17861 24.0137 7.65566 26.412C8.13271 28.8103 9.31024 31.0133 11.0393 32.7424C12.7684 34.4715 14.9714 35.649 17.3697 36.1261C19.768 36.6031 22.2539 36.3583 24.5131 35.4225C26.7722 34.4867 28.7032 32.902 30.0617 30.8689C31.4202 28.8357 32.1454 26.4453 32.1454 24C32.1443 20.7213 30.8413 17.5772 28.5229 15.2588C26.2045 12.9404 23.0604 11.6374 19.7817 11.6364ZM26.0295 18.8237L23.0705 26.0111C22.8303 26.5892 22.371 27.0486 21.7929 27.2887L14.6055 30.2477C14.4557 30.3077 14.2916 30.3224 14.1336 30.29C13.9755 30.2575 13.8304 30.1794 13.7164 30.0654C13.6023 29.9513 13.5242 29.8062 13.4918 29.6482C13.4593 29.4901 13.474 29.326 13.534 29.1762L16.493 21.9888C16.7331 21.4108 17.1925 20.9514 17.7706 20.7113L24.958 17.7522C25.1078 17.6923 25.2718 17.6776 25.4299 17.71C25.588 17.7424 25.733 17.8205 25.8471 17.9346C25.9612 18.0487 26.0393 18.1938 26.0717 18.3518C26.1041 18.5099 26.0894 18.674 26.0295 18.8237Z"/>
</mask>
<path d="M19.7817 11.6364C17.3364 11.6364 14.9461 12.3615 12.9129 13.72C10.8797 15.0785 9.295 17.0095 8.35922 19.2686C7.42345 21.5278 7.17861 24.0137 7.65566 26.412C8.13271 28.8103 9.31024 31.0133 11.0393 32.7424C12.7684 34.4715 14.9714 35.649 17.3697 36.1261C19.768 36.6031 22.2539 36.3583 24.5131 35.4225C26.7722 34.4867 28.7032 32.902 30.0617 30.8689C31.4202 28.8357 32.1454 26.4453 32.1454 24C32.1443 20.7213 30.8413 17.5772 28.5229 15.2588C26.2045 12.9404 23.0604 11.6374 19.7817 11.6364ZM26.0295 18.8237L23.0705 26.0111C22.8303 26.5892 22.371 27.0486 21.7929 27.2887L14.6055 30.2477C14.4557 30.3077 14.2916 30.3224 14.1336 30.29C13.9755 30.2575 13.8304 30.1794 13.7164 30.0654C13.6023 29.9513 13.5242 29.8062 13.4918 29.6482C13.4593 29.4901 13.474 29.326 13.534 29.1762L16.493 21.9888C16.7331 21.4108 17.1925 20.9514 17.7706 20.7113L24.958 17.7522C25.1078 17.6923 25.2718 17.6776 25.4299 17.71C25.588 17.7424 25.733 17.8205 25.8471 17.9346C25.9612 18.0487 26.0393 18.1938 26.0717 18.3518C26.1041 18.5099 26.0894 18.674 26.0295 18.8237Z" fill="white"/>
<path d="M19.7817 11.6364L19.7849 2.26135H19.7817L19.7817 11.6364ZM32.1454 24L41.5204 24L41.5204 23.9969L32.1454 24ZM26.0295 18.8237L34.6985 22.3928L34.716 22.3503L34.7331 22.3076L26.0295 18.8237ZM23.0705 26.0111L31.7282 29.6075L31.7339 29.5938L31.7395 29.5802L23.0705 26.0111ZM21.7929 27.2887L25.3619 35.9578L25.3756 35.9521L25.3892 35.9465L21.7929 27.2887ZM14.6055 30.2477L18.0893 38.9514L18.132 38.9343L18.1745 38.9168L14.6055 30.2477ZM13.534 29.1762L4.86491 25.6072L4.84741 25.6497L4.83033 25.6924L13.534 29.1762ZM16.493 21.9888L7.83525 18.3925L7.82957 18.4061L7.82394 18.4198L16.493 21.9888ZM17.7706 20.7113L14.2015 12.0422L14.1879 12.0478L14.1742 12.0535L17.7706 20.7113ZM24.958 17.7522L21.4741 9.04859L21.4314 9.06567L21.3889 9.08317L24.958 17.7522ZM19.7817 11.6364L19.7817 2.26135C15.4822 2.26135 11.2793 3.5363 7.70439 5.92497L12.9129 13.72L18.1213 21.515C18.6128 21.1866 19.1906 21.0114 19.7817 21.0114L19.7817 11.6364ZM12.9129 13.72L7.70439 5.92497C4.12949 8.31365 1.3432 11.7088 -0.302149 15.681L8.35922 19.2686L17.0206 22.8563C17.2468 22.3102 17.6299 21.8434 18.1213 21.515L12.9129 13.72ZM8.35922 19.2686L-0.302149 15.681C-1.94749 19.6532 -2.37799 24.0241 -1.5392 28.241L7.65566 26.412L16.8505 24.583C16.7352 24.0033 16.7944 23.4024 17.0206 22.8563L8.35922 19.2686ZM7.65566 26.412L-1.5392 28.241C-0.700412 32.4579 1.36999 36.3313 4.41019 39.3715L11.0393 32.7424L17.6684 26.1133C17.2505 25.6953 16.9658 25.1628 16.8505 24.583L7.65566 26.412ZM11.0393 32.7424L4.41019 39.3715C7.4504 42.4117 11.3239 44.4821 15.5407 45.3209L17.3697 36.1261L19.1987 26.9312C18.6189 26.8159 18.0864 26.5312 17.6684 26.1133L11.0393 32.7424ZM17.3697 36.1261L15.5407 45.3209C19.7576 46.1597 24.1285 45.7292 28.1007 44.0839L24.5131 35.4225L20.9254 26.7611C20.3793 26.9873 19.7784 27.0465 19.1987 26.9312L17.3697 36.1261ZM24.5131 35.4225L28.1007 44.0839C32.073 42.4385 35.4681 39.6522 37.8567 36.0773L30.0617 30.8689L22.2667 25.6604C21.9383 26.1519 21.4715 26.5349 20.9254 26.7611L24.5131 35.4225ZM30.0617 30.8689L37.8567 36.0773C40.2454 32.5024 41.5204 28.2995 41.5204 24L32.1454 24L22.7704 24C22.7704 24.5911 22.5951 25.1689 22.2667 25.6604L30.0617 30.8689ZM32.1454 24L41.5204 23.9969C41.5184 18.2328 39.2278 12.7054 35.1521 8.62966L28.5229 15.2588L21.8938 21.8879C22.4548 22.4489 22.7701 23.2097 22.7704 24.0031L32.1454 24ZM28.5229 15.2588L35.1521 8.62966C31.0763 4.55387 25.5489 2.26327 19.7849 2.26135L19.7817 11.6364L19.7786 21.0114C20.572 21.0116 21.3328 21.3269 21.8938 21.8879L28.5229 15.2588ZM26.0295 18.8237L17.3604 15.2547L14.4014 22.4421L23.0705 26.0111L31.7395 29.5802L34.6985 22.3928L26.0295 18.8237ZM23.0705 26.0111L14.4127 22.4148C15.1239 20.7027 16.4844 19.3421 18.1965 18.631L21.7929 27.2887L25.3892 35.9465C28.2575 34.755 30.5368 32.4757 31.7282 29.6075L23.0705 26.0111ZM21.7929 27.2887L18.2239 18.6196L11.0365 21.5787L14.6055 30.2477L18.1745 38.9168L25.3619 35.9578L21.7929 27.2887ZM14.6055 30.2477L11.1216 21.5441C12.6755 20.9221 14.3778 20.7698 16.0175 21.1062L14.1336 30.29L12.2497 39.4737C14.2054 39.8749 16.2359 39.6933 18.0893 38.9514L14.6055 30.2477ZM14.1336 30.29L16.0175 21.1062C17.6571 21.4425 19.1619 22.2527 20.3455 23.4362L13.7164 30.0654L7.08724 36.6945C8.49895 38.1062 10.2939 39.0725 12.2497 39.4737L14.1336 30.29ZM13.7164 30.0654L20.3455 23.4362C21.529 24.6198 22.3392 26.1247 22.6755 27.7643L13.4918 29.6482L4.308 31.5321C4.70918 33.4878 5.67551 35.2828 7.08724 36.6945L13.7164 30.0654ZM13.4918 29.6482L22.6755 27.7643C23.0119 29.4039 22.8596 31.1062 22.2376 32.6601L13.534 29.1762L4.83033 25.6924C4.08842 27.5459 3.90681 29.5763 4.308 31.5321L13.4918 29.6482ZM13.534 29.1762L22.203 32.7453L25.1621 25.5579L16.493 21.9888L7.82394 18.4198L4.86491 25.6072L13.534 29.1762ZM16.493 21.9888L25.1508 25.5852C24.4396 27.2973 23.079 28.6578 21.3669 29.369L17.7706 20.7113L14.1742 12.0535C11.306 13.2449 9.02668 15.5243 7.83525 18.3925L16.493 21.9888ZM17.7706 20.7113L21.3396 29.3803L28.527 26.4213L24.958 17.7522L21.3889 9.08317L14.2015 12.0422L17.7706 20.7113ZM24.958 17.7522L28.4418 26.4559C26.8879 27.0779 25.1856 27.2301 23.546 26.8938L25.4299 17.71L27.3138 8.52625C25.3581 8.12507 23.3276 8.30668 21.4741 9.04859L24.958 17.7522ZM25.4299 17.71L23.546 26.8938C21.9064 26.5574 20.4015 25.7473 19.218 24.5637L25.8471 17.9346L32.4762 11.3055C31.0645 9.89378 29.2695 8.92744 27.3138 8.52625L25.4299 17.71ZM25.8471 17.9346L19.218 24.5637C18.0344 23.3802 17.2243 21.8753 16.8879 20.2357L26.0717 18.3518L35.2555 16.4679C34.8543 14.5122 33.8879 12.7172 32.4762 11.3055L25.8471 17.9346ZM26.0717 18.3518L16.8879 20.2357C16.5516 18.5961 16.7039 16.8938 17.3258 15.3399L26.0295 18.8237L34.7331 22.3076C35.475 20.4541 35.6567 18.4237 35.2555 16.4679L26.0717 18.3518Z" fill="#3D3A3F" mask="url(#path-2-inside-1_2275_1780)"/>
<path d="M16 20.5L12 32L23.5 27.5L28 16L16 20.5Z" stroke="#FE7D57" stroke-width="0.5" stroke-linecap="round" stroke-linejoin="round"/>
<path d="M19.7817 25.5455C20.6353 25.5455 21.3272 24.8536 21.3272 24C21.3272 23.1465 20.6353 22.4546 19.7817 22.4546C18.9282 22.4546 18.2363 23.1465 18.2363 24C18.2363 24.8536 18.9282 25.5455 19.7817 25.5455Z" fill="#3D3A3F"/>
<circle cx="19.7817" cy="24" r="18" stroke="#3D3A3F" stroke-width="2"/>
</svg>